{"title":"The.Curious.Case.Of.Benjamin.Button.2008.DVDRip.XviD[ENG]-NWO","uid":5527305,"size":733730098,"categoryP":"video","categoryS":"movies","magnet":"?xt=urn:btih:061bc0866608a1210b347ad559c16bf8a284f24e&amp;dn=The.Curious.Case.Of.Benjamin.Button.2008.DVDRip.XviD%5BENG%5D-NWO&amp;tr=udp%3A%2F%2Ftracker.openbittorrent.com%3A80&amp;tr=udp%3A%2F%2Fopen.demonii.com%3A1337&amp;tr=udp%3A%2F%2Ftracker.coppersurfer.tk%3A6969&amp;tr=udp%3A%2F%2Fexodus.desync.com%3A6969","seeders":1,"leechers":0,"uploader":"Dark_Lestat","files":3,"time":1272815914,"description":"Format : AVI\nFormat/Info : Audio Video Interleave\nFile size : 699 MiB\nDuration : 2h 46mn\nOverall bit rate : 589 Kbps\nWriting application : VirtualDubMod 1.5.10.2 (build 2540/release)\nWriting library : VirtualDubMod build 2540/release\n\nVideo\nID : 0\nFormat : MPEG-4 Visual\nFormat profile : Advanced Simple@L5\nFormat settings, BVOP : Yes\nFormat settings, QPel : No\nFormat settings, GMC : No warppoints\nFormat settings, Matrix : Default (H.263)\nCodec ID : DIVX\nCodec ID/Info : Project Mayo\nCodec ID/Hint : DivX 4\nDuration : 2h 46mn\nBit rate : 468 Kbps\nWidth : 656 pixels\nHeight : 272 pixels\nDisplay aspect ratio : 2.40:1\nFrame rate : 23.976 fps\nResolution : 8 bits\nColorimetry : 4:2:0\nScan type : Progressive\nBits/(Pixel*Frame) : 0.109\nStream size : 556 MiB (80%)\nWriting library : XviD 1.2.1 (UTC 2008-12-04)\n\nAudio\nID : 1\nFormat : MPEG Audio\nFormat version : Version 1\nFormat profile : Layer 3\nFormat_Settings_Mode : Joint stereo\nFormat_Settings_ModeExtension : MS Stereo\nCodec ID : 55\nCodec ID/Hint : MP3\nDuration : 2h 46mn\nBit rate mode : Variable\nBit rate : 108 Kbps\nChannel(s) : 2 channels\nSampling rate : 44.1 KHz\nStream size : 129 MiB (18%)\nAlignment : Aligned on interleaves\nInterleave, duration : 26 ms (0.63 video frame)\nInterleave, preload duration : 176 ms\nWriting library : LAME3.90.\nEncoding settings : -m j -V 4 -q 2 -lowpass 16 --abr 108","torrent":{"xt":"urn:btih:061bc0866608a1210b347ad559c16bf8a284f24e","amp;dn":"The.Curious.Case.Of.Benjamin.Button.2008.DVDRip.XviD%5BENG%5D-NWO","amp;tr":["udp%3A%2F%2Ftracker.openbittorrent.com%3A80","udp%3A%2F%2Fopen.demonii.com%3A1337","udp%3A%2F%2Ftracker.coppersurfer.tk%3A6969","udp%3A%2F%2Fexodus.desync.com%3A6969"],"infoHash":"061bc0866608a1210b347ad559c16bf8a284f24e","infoHashBuffer":{"type":"Buffer","data":[6,27,192,134,102,8,161,33,11,52,122,213,89,193,107,248,162,132,242,78]},"announce":[],"urlList":[]}}